<mxfile host="65bd71144e">
    <diagram id="y97ux0yySkE4DyIflFOb" name="Страница — 1">
        <mxGraphModel dx="840" dy="842" grid="1" gridSize="10" guides="1" tooltips="1" connect="1" arrows="1" fold="1" page="1" pageScale="1" pageWidth="827" pageHeight="1169" math="0" shadow="0">
            <root>
                <mxCell id="0"/>
                <mxCell id="1" parent="0"/>
                <mxCell id="2" value="Overlay" style="swimlane;fontStyle=0;childLayout=stackLayout;horizontal=1;startSize=30;horizontalStack=0;resizeParent=1;resizeParentMax=0;resizeLast=0;collapsible=1;marginBottom=0;whiteSpace=wrap;html=1;fillColor=#ffe6cc;strokeColor=#d79b00;" parent="1" vertex="1">
                    <mxGeometry x="80" y="40" width="160" height="280" as="geometry"/>
                </mxCell>
                <mxCell id="6" value="" style="text;strokeColor=#666666;fillColor=#f5f5f5;align=center;verticalAlign=middle;spacingLeft=4;spacingRight=4;overflow=hidden;points=[[0,0.5],[1,0.5]];portConstraint=eastwest;rotatable=0;whiteSpace=wrap;html=1;horizontal=1;fontColor=#333333;" parent="2" vertex="1">
                    <mxGeometry y="30" width="160" height="50" as="geometry"/>
                </mxCell>
                <mxCell id="14" value="widgetName" style="text;align=center;verticalAlign=middle;spacingLeft=4;spacingRight=4;overflow=hidden;points=[[0,0.5],[1,0.5]];portConstraint=eastwest;rotatable=0;whiteSpace=wrap;html=1;horizontal=1;fillColor=#dae8fc;strokeColor=#6c8ebf;" parent="2" vertex="1">
                    <mxGeometry y="80" width="160" height="50" as="geometry"/>
                </mxCell>
                <mxCell id="15" value="fetch" style="text;align=center;verticalAlign=middle;spacingLeft=4;spacingRight=4;overflow=hidden;points=[[0,0.5],[1,0.5]];portConstraint=eastwest;rotatable=0;whiteSpace=wrap;html=1;horizontal=1;fillColor=#d5e8d4;strokeColor=#82b366;" parent="2" vertex="1">
                    <mxGeometry y="130" width="160" height="50" as="geometry"/>
                </mxCell>
                <mxCell id="29" value="isFullView" style="text;align=center;verticalAlign=middle;spacingLeft=4;spacingRight=4;overflow=hidden;points=[[0,0.5],[1,0.5]];portConstraint=eastwest;rotatable=0;whiteSpace=wrap;html=1;horizontal=1;fillColor=#d5e8d4;strokeColor=#82b366;" parent="2" vertex="1">
                    <mxGeometry y="180" width="160" height="50" as="geometry"/>
                </mxCell>
                <mxCell id="30" value="handleToggleFullView" style="text;align=center;verticalAlign=middle;spacingLeft=4;spacingRight=4;overflow=hidden;points=[[0,0.5],[1,0.5]];portConstraint=eastwest;rotatable=0;whiteSpace=wrap;html=1;horizontal=1;fillColor=#d5e8d4;strokeColor=#82b366;" parent="2" vertex="1">
                    <mxGeometry y="230" width="160" height="50" as="geometry"/>
                </mxCell>
                <mxCell id="22" value="WIdgetAiAtack" style="swimlane;fontStyle=0;childLayout=stackLayout;horizontal=1;startSize=30;horizontalStack=0;resizeParent=1;resizeParentMax=0;resizeLast=0;collapsible=1;marginBottom=0;whiteSpace=wrap;html=1;fillColor=#dae8fc;strokeColor=#6c8ebf;" parent="1" vertex="1">
                    <mxGeometry x="320" y="90" width="160" height="130" as="geometry"/>
                </mxCell>
                <mxCell id="31" style="edgeStyle=elbowEdgeStyle;html=1;exitX=1;exitY=0.5;exitDx=0;exitDy=0;entryX=0;entryY=0.5;entryDx=0;entryDy=0;fillColor=#dae8fc;strokeColor=#6c8ebf;elbow=vertical;" parent="1" source="14" edge="1">
                    <mxGeometry relative="1" as="geometry">
                        <mxPoint x="320" y="145" as="targetPoint"/>
                    </mxGeometry>
                </mxCell>
                <mxCell id="61" value="AiAtack" style="swimlane;fontStyle=0;childLayout=stackLayout;horizontal=1;startSize=30;horizontalStack=0;resizeParent=1;resizeParentMax=0;resizeLast=0;collapsible=1;marginBottom=0;whiteSpace=wrap;html=1;fillColor=#ffe6cc;strokeColor=#d79b00;" vertex="1" parent="1">
                    <mxGeometry x="80" y="360" width="160" height="280" as="geometry"/>
                </mxCell>
                <mxCell id="62" value="" style="text;strokeColor=#666666;fillColor=#f5f5f5;align=center;verticalAlign=middle;spacingLeft=4;spacingRight=4;overflow=hidden;points=[[0,0.5],[1,0.5]];portConstraint=eastwest;rotatable=0;whiteSpace=wrap;html=1;horizontal=1;fontColor=#333333;" vertex="1" parent="61">
                    <mxGeometry y="30" width="160" height="50" as="geometry"/>
                </mxCell>
                <mxCell id="63" value="widgetName" style="text;align=center;verticalAlign=middle;spacingLeft=4;spacingRight=4;overflow=hidden;points=[[0,0.5],[1,0.5]];portConstraint=eastwest;rotatable=0;whiteSpace=wrap;html=1;horizontal=1;fillColor=#dae8fc;strokeColor=#6c8ebf;" vertex="1" parent="61">
                    <mxGeometry y="80" width="160" height="50" as="geometry"/>
                </mxCell>
                <mxCell id="64" value="fetch" style="text;align=center;verticalAlign=middle;spacingLeft=4;spacingRight=4;overflow=hidden;points=[[0,0.5],[1,0.5]];portConstraint=eastwest;rotatable=0;whiteSpace=wrap;html=1;horizontal=1;fillColor=#d5e8d4;strokeColor=#82b366;" vertex="1" parent="61">
                    <mxGeometry y="130" width="160" height="50" as="geometry"/>
                </mxCell>
                <mxCell id="65" value="isFullView" style="text;align=center;verticalAlign=middle;spacingLeft=4;spacingRight=4;overflow=hidden;points=[[0,0.5],[1,0.5]];portConstraint=eastwest;rotatable=0;whiteSpace=wrap;html=1;horizontal=1;fillColor=#d5e8d4;strokeColor=#82b366;" vertex="1" parent="61">
                    <mxGeometry y="180" width="160" height="50" as="geometry"/>
                </mxCell>
                <mxCell id="66" value="handleToggleFullView" style="text;align=center;verticalAlign=middle;spacingLeft=4;spacingRight=4;overflow=hidden;points=[[0,0.5],[1,0.5]];portConstraint=eastwest;rotatable=0;whiteSpace=wrap;html=1;horizontal=1;fillColor=#d5e8d4;strokeColor=#82b366;" vertex="1" parent="61">
                    <mxGeometry y="230" width="160" height="50" as="geometry"/>
                </mxCell>
            </root>
        </mxGraphModel>
    </diagram>
</mxfile>